<svg xmlns="http://www.w3.org/2000/svg" xmlns:xlink="http://www.w3.org/1999/xlink" width="156.176" height="34.999" viewBox="0 0 156.176 34.999">
  <defs>
    <clipPath id="clip-path">
      <path id="Path_3" data-name="Path 3" d="M20.769-158.482H11.9A11.867,11.867,0,0,0,.088-146.562v8.659A11.867,11.867,0,0,0,11.9-125.982h8.869a11.742,11.742,0,0,0,2.579-.285,3.237,3.237,0,0,0,2.2-1.927,2.826,2.826,0,0,0-2.163-3.446c-.834-.078-2.477.109-3.554.109l-7.605.22a6.774,6.774,0,0,1-6.743-6.805v-8.232a6.774,6.774,0,0,1,6.743-6.805h8.213a6.774,6.774,0,0,1,6.743,6.805l-.233,8.086c0,.937-.969,4.434,2.27,4.893,1.6.226,3.048-1.506,3.234-2.789a12.12,12.12,0,0,0,.125-1.744v-8.659a11.867,11.867,0,0,0-11.812-11.921" transform="translate(-0.088 158.482)" fill="#f05f40" clip-rule="evenodd"/>
    </clipPath>
    <clipPath id="clip-path-2">
      <path id="Path_2" data-name="Path 2" d="M-75-146.452H113.023V-200H-75Z" transform="translate(75 200)" fill="#f05f40"/>
    </clipPath>
    <clipPath id="clip-path-3">
      <path id="Path_6" data-name="Path 6" d="M126.285-29.553h2.231a2.971,2.971,0,0,0,2.971-2.971v-2.158a2.971,2.971,0,0,0-2.971-2.971h-2.231a2.983,2.983,0,0,0-.649.071.812.812,0,0,0-.554.48.782.782,0,0,0,.544.859,6.9,6.9,0,0,0,.894-.027l1.913-.055a1.7,1.7,0,0,1,1.7,1.7v2.052a1.7,1.7,0,0,1-1.7,1.7h-2.066a1.7,1.7,0,0,1-1.7-1.7l.059-2.015c0-.233.244-1.105-.571-1.22a.836.836,0,0,0-.814.7,2.981,2.981,0,0,0-.032.435v2.158a2.971,2.971,0,0,0,2.971,2.971" transform="translate(-123.314 37.653)" fill="#f05f40" clip-rule="evenodd"/>
    </clipPath>
    <clipPath id="clip-path-4">
      <path id="Path_5" data-name="Path 5" d="M-75-146.94H113.023V-200H-75Z" transform="translate(75 200)" fill="#f05f40"/>
    </clipPath>
    <clipPath id="clip-path-5">
      <path id="Path_9" data-name="Path 9" d="M112.2-50.578h-.776a1.034,1.034,0,0,0-1.034,1.034v.751a1.034,1.034,0,0,0,1.034,1.034h.776a1.032,1.032,0,0,0,.226-.025.283.283,0,0,0,.193-.167.272.272,0,0,0-.189-.3,2.4,2.4,0,0,0-.311.009l-.666.019a.59.59,0,0,1-.59-.59v-.714a.59.59,0,0,1,.59-.59h.719a.59.59,0,0,1,.59.59l-.02.7c0,.081-.085.385.2.424a.291.291,0,0,0,.283-.242,1.049,1.049,0,0,0,.011-.151v-.751a1.034,1.034,0,0,0-1.034-1.034" transform="translate(-110.394 50.578)" fill="#f05f40" clip-rule="evenodd"/>
    </clipPath>
    <clipPath id="clip-path-7">
      <path id="Path_12" data-name="Path 12" d="M338.645-84.2h-3.315s.006-8.944,0-12.246a3.988,3.988,0,0,0-3.925-4.252c-2.218-.023-3.8,1.718-3.81,4.208-.008,3.607.018,12.29.018,12.29h-3.305s-.024-9.042-.016-12.454a7.115,7.115,0,0,1,7.161-6.861,7,7,0,0,1,7.18,6.792c.012,1.871.014,12.522.014,12.522" transform="translate(-324.289 103.51)" fill="#f05f40" clip-rule="evenodd"/>
    </clipPath>
    <clipPath id="clip-path-9">
      <path id="Path_15" data-name="Path 15" d="M652.464-97.328c-.008,2.978-.094,13.127-.094,13.127h-3.2s.017-9.864-.016-12.531a3.946,3.946,0,0,0-4-3.967,3.78,3.78,0,0,0-3.723,3.948c-.015,3.736.015,12.549.015,12.549h-3.354s-.042-8.915.012-12.29a7.079,7.079,0,0,1,6.676-7.011,7.143,7.143,0,0,1,7.688,6.174" transform="translate(-638.073 103.516)" fill="#f05f40" clip-rule="evenodd"/>
    </clipPath>
    <clipPath id="clip-path-11">
      <path id="Path_18" data-name="Path 18" d="M167.086-99.761h3.151s0,8.716.015,12.017a3.911,3.911,0,0,0,3.051,3.921,3.607,3.607,0,0,0,4.418-3.645c.037-3.622-.016-12.293-.016-12.293h3.285s.046,8.711,0,12.085a6.929,6.929,0,0,1-6.288,6.657,7.017,7.017,0,0,1-7.438-5.063,6.426,6.426,0,0,1-.16-1.521c-.019-1.8-.018-12.158-.018-12.158" transform="translate(-167.086 99.761)" fill="#f05f40" clip-rule="evenodd"/>
    </clipPath>
    <clipPath id="clip-path-13">
      <path id="Path_21" data-name="Path 21" d="M404.6-122.749h-1.547a1.305,1.305,0,0,1-1.513-1.454,1.424,1.424,0,0,1,1.357-1.626c.5-.006,1.7,0,1.7,0s0-4.328,0-5.391c.009-1.315.507-1.936,1.55-1.968,1.094-.034,1.612.586,1.626,1.993.01,1-.009,5.366-.009,5.366H411.2v3.078h-3.432s.006,7.945.016,10.549c0,2.79,2.995,2.008,2.995,2.008v3.071s-1.964-.006-2.164-.009c-2.445-.05-3.913-1.615-4.015-4.282,0-.073,0-11.337,0-11.337" transform="translate(-401.536 133.188)" fill="#f05f40" clip-rule="evenodd"/>
    </clipPath>
    <clipPath id="clip-path-15">
      <path id="Path_24" data-name="Path 24" d="M457.553-95.113l.187-.794a5.855,5.855,0,0,1,5.664-4.486,6.1,6.1,0,0,1,5.364,5.28Zm14.284-1.005c-1.6-6.741-9.127-9.545-14.2-5.194-3.085,2.645-3.972,6.154-3.182,10.068,1.363,6.758,8.876,9.634,14.111,5.44a12.868,12.868,0,0,0,1.273-1.18l-2.414-1.849a4.13,4.13,0,0,0-.465.428c-2.593,3.056-7.474,1.971-9.113-2.589-.133-.371-.289-.819-.289-.819h14.518s.007-.694,0-1.027a15.436,15.436,0,0,0-.238-3.279Z" transform="translate(-454.181 103.398)" fill="#f05f40" clip-rule="evenodd"/>
    </clipPath>
    <clipPath id="clip-path-17">
      <path id="Path_27" data-name="Path 27" d="M557.4-88.6a5.049,5.049,0,0,1-7.8-.018,7.71,7.71,0,0,1,.16-10.128,5.084,5.084,0,0,1,7.435-.051,7.256,7.256,0,0,1,2.055,5.138A7.361,7.361,0,0,1,557.4-88.6m4.925-6.9a9.265,9.265,0,0,0-8.838-7.871,7.673,7.673,0,0,0-2.483.391c-5.941,1.89-8.383,9.6-4.78,15.1a8.526,8.526,0,0,0,14.347.312,10.349,10.349,0,0,0,1.754-7.929" transform="translate(-544.541 103.366)" fill="#f05f40" clip-rule="evenodd"/>
    </clipPath>
    <clipPath id="clip-path-19">
      <path id="Path_30" data-name="Path 30" d="M245.157-86.732a2.662,2.662,0,0,1-2.119-2.606,2.658,2.658,0,0,1,1.933-2.85,17.728,17.728,0,0,1,3.925-.623,12.009,12.009,0,0,0,3.21-.822s.172,1.06.207,1.842c.185,4.1-4.36,5.68-7.155,5.06M255.2-98.085a4.488,4.488,0,0,0-3.349-4.727,13.012,13.012,0,0,0-8.106.026c-.079.022-.674.291-.674.291l.245,2.79s2.853-.882,3.5-.979a6.759,6.759,0,0,1,3.771.451,2.632,2.632,0,0,1,1.486,2.909c-.173,1.238-1,1.538-2.095,1.664-1.963.227-3.939.441-5.866.862a5.283,5.283,0,0,0-4.424,5.392,5.342,5.342,0,0,0,4,5.289,12.4,12.4,0,0,0,4.375.205c3.984-.339,6.48-2.847,6.985-6.806a42.375,42.375,0,0,0,.15-4.288c0-1.17.008-2.125,0-3.079" transform="translate(-239.691 103.451)" fill="#f05f40" clip-rule="evenodd"/>
    </clipPath>
  </defs>
  <g id="Q_Logo_Home_Screen" data-name="Q Logo_Home Screen" transform="translate(-633.905 -120.343)">
    <g id="Group_757" data-name="Group 757" transform="translate(633.905 120.343)">
      <g id="Group_2" data-name="Group 2" clip-path="url(#clip-path)">
        <g id="Group_1" data-name="Group 1" transform="translate(-16.532 -9.225)" clip-path="url(#clip-path-2)">
          <path id="Path_1" data-name="Path 1" d="M-4.912-128.76H29.783v-34.722H-4.912Z" transform="translate(20.343 171.596)" fill="#f05f40"/>
        </g>
      </g>
      <g id="Group_4" data-name="Group 4" transform="translate(27.117 26.899)" clip-path="url(#clip-path-3)">
        <g id="Group_3" data-name="Group 3" transform="translate(-43.662 -35.744)" clip-path="url(#clip-path-4)">
          <path id="Path_4" data-name="Path 4" d="M118.314-32.351h10.375v-10.3H118.314Z" transform="translate(-75.752 77.296)" fill="#f05f40"/>
        </g>
      </g>
      <g id="Group_6" data-name="Group 6" transform="translate(24.286 23.978)" clip-path="url(#clip-path-5)">
        <g id="Group_5" data-name="Group 5" transform="translate(-40.818 -32.898)" clip-path="url(#clip-path-4)">
          <path id="Path_7" data-name="Path 7" d="M105.394-50.557h5.046v-5.021h-5.046Z" transform="translate(-65.677 87.375)" fill="#f05f40"/>
        </g>
      </g>
    </g>
    <g id="Group_8" data-name="Group 8" transform="translate(705.955 132.742)" clip-path="url(#clip-path-7)">
      <g id="Group_7" data-name="Group 7" transform="translate(-87.911 -21.244)" clip-path="url(#clip-path-4)">
        <path id="Path_10" data-name="Path 10" d="M319.289-86.994h16.558V-108.51H319.289Z" transform="translate(-232.48 128.653)" fill="#f05f40"/>
      </g>
    </g>
    <g id="Group_10" data-name="Group 10" transform="translate(775.689 132.74)" clip-path="url(#clip-path-9)">
      <g id="Group_9" data-name="Group 9" transform="translate(-156.996 -21.243)" clip-path="url(#clip-path-4)">
        <path id="Path_13" data-name="Path 13" d="M633.073-87h16.593v-21.517H633.073Z" transform="translate(-477.178 128.658)" fill="#f05f40"/>
      </g>
    </g>
    <g id="Group_12" data-name="Group 12" transform="translate(671.017 133.567)" clip-path="url(#clip-path-11)">
      <g id="Group_11" data-name="Group 11" transform="translate(-53.3 -22.07)" clip-path="url(#clip-path-4)">
        <path id="Path_16" data-name="Path 16" d="M162.086-83.77h16.126v-20.99H162.086Z" transform="translate(-109.887 125.729)" fill="#f05f40"/>
      </g>
    </g>
    <g id="Group_14" data-name="Group 14" transform="translate(723.095 126.208)" clip-path="url(#clip-path-13)">
      <g id="Group_13" data-name="Group 13" transform="translate(-104.918 -14.71)" clip-path="url(#clip-path-4)">
        <path id="Path_19" data-name="Path 19" d="M396.536-109.92H408.4v-28.268H396.536Z" transform="translate(-292.719 151.797)" fill="#f05f40"/>
      </g>
    </g>
    <g id="Group_16" data-name="Group 16" transform="translate(734.846 132.766)" clip-path="url(#clip-path-15)">
      <g id="Group_15" data-name="Group 15" transform="translate(-116.509 -21.269)" clip-path="url(#clip-path-4)">
        <path id="Path_22" data-name="Path 22" d="M449.181-86.644h20.1V-108.4h-20.1Z" transform="translate(-333.773 128.566)" fill="#f05f40"/>
      </g>
    </g>
    <g id="Group_18" data-name="Group 18" transform="translate(755.097 132.774)" clip-path="url(#clip-path-17)">
      <g id="Group_17" data-name="Group 17" transform="translate(-136.403 -21.276)" clip-path="url(#clip-path-4)">
        <path id="Path_25" data-name="Path 25" d="M539.541-86.6h20.145v-21.768H539.541Z" transform="translate(-404.238 128.541)" fill="#f05f40"/>
      </g>
    </g>
    <g id="Group_20" data-name="Group 20" transform="translate(687.158 132.755)" clip-path="url(#clip-path-19)">
      <g id="Group_19" data-name="Group 19" transform="translate(-69.285 -21.257)" clip-path="url(#clip-path-4)">
        <path id="Path_28" data-name="Path 28" d="M234.691-86.615h17.715v-21.836H234.691Z" transform="translate(-166.507 128.607)" fill="#f05f40"/>
      </g>
    </g>
  </g>
</svg>
